<svg id="Layer_1" data-name="Layer 1" xmlns="http://www.w3.org/2000/svg" viewBox="0 0 114 114"><defs><style>.cls-1{fill:#fff;}</style></defs><circle class="cls-1" cx="57" cy="57" r="35.63" transform="translate(-8.39 104.13) rotate(-80.78)"/><polygon class="cls-1" points="57 0.19 51.36 17.02 62.64 17.02 57 0.19"/><polygon class="cls-1" points="51.36 96.98 57 113.81 62.64 96.98 51.36 96.98"/><polygon class="cls-1" points="41.89 19.56 28.6 7.8 32.13 25.2 41.89 19.56"/><polygon class="cls-1" points="72.11 94.44 85.4 106.2 81.87 88.81 72.11 94.44"/><polygon class="cls-1" points="25.2 32.13 7.8 28.6 19.56 41.89 25.2 32.13"/><polygon class="cls-1" points="88.81 81.87 106.2 85.4 94.44 72.11 88.81 81.87"/><polygon class="cls-1" points="17.02 51.36 0.19 57 17.02 62.64 17.02 51.36"/><polygon class="cls-1" points="96.98 62.64 113.81 57 96.98 51.36 96.98 62.64"/><polygon class="cls-1" points="7.8 85.4 25.2 81.87 19.56 72.11 7.8 85.4"/><polygon class="cls-1" points="106.2 28.6 88.81 32.13 94.44 41.89 106.2 28.6"/><polygon class="cls-1" points="28.6 106.2 41.89 94.44 32.13 88.81 28.6 106.2"/><polygon class="cls-1" points="85.4 7.8 72.11 19.56 81.87 25.2 85.4 7.8"/></svg>