<svg id="Layer_1" data-name="Layer 1" xmlns="http://www.w3.org/2000/svg" viewBox="0 0 114 114"><defs><style>.cls-1{fill:#fff;}</style></defs><path class="cls-1" d="M111.22,26.64c1.91-1.11-1-1-1-1C93.81,27.1,76,39.08,76,39.08,68,35.56,52.21,35,52.21,35c-5.39.33-7.43-2.74-7.43-2.74L36.07,22.06c-10-10.14-24.16-1.36-24.16-1.36C.2,20.84.14,23.41.14,23.41c5,1.7,9.44,2.72,9.44,2.72,1.68.23,5.85,3.11,5.85,3.11a26.54,26.54,0,0,1,3.46,3.57c1.27,1.45,2.65,2.55,2.92,4.57a19.7,19.7,0,0,1-.52,6,15.92,15.92,0,0,0,3,12.32,37.37,37.37,0,0,0,5.58,6.07c8.26,7.8,16.3,9.15,16.3,9.15a7.09,7.09,0,0,1,4.13,1.35c2.51,2.13,1.9,3.8,1.9,3.8l-6.87,4.83-.14-.32c-.65-2.18-2.27-.47-2.27-.47-1.07-.37-2.49.79-2.49.79-2.51-1.6-2.64,1.33-2.64,1.33-4.5,1.32-2.72,4-2.72,4-.11.77.87,1.6.87,1.6-.16.65-2.64,2.72-4.38,4.11a2.77,2.77,0,0,0-.21,4.18l.06,0a2.75,2.75,0,0,0,3.37.21l5.81-3.87a2.5,2.5,0,0,0,3.88.37c.52-.14,1.26-1.11,1.26-1.11C58.08,89.93,64.8,86,64.8,86c.11.73,1,1.15,1,1.15a2,2,0,0,0,3,.21C67.42,88,67.24,87,67.24,87c.42-.25,0-1.4,0-1.4a1.57,1.57,0,0,0,2.15-1.68,62.83,62.83,0,0,0,13.93-8.36,2.42,2.42,0,0,0-.07-3.87l0,0a2.44,2.44,0,0,0-2.81.1,103.76,103.76,0,0,1-13.56,8c-.65-.18-.55-3-.55-3,0-2.83,1.53-7.57,1.53-7.57a5.8,5.8,0,0,0,.09-5.52,12.24,12.24,0,0,0,5.53-8.08,10.57,10.57,0,0,0,4.69-5A23.6,23.6,0,0,1,83,44.38c5.73.07,5-.75,5-.75-.44-.74-2.6-.76-2.6-.76-.21-.37-1.09-.35-1.09-.35a86.59,86.59,0,0,0,13.19-7C101.24,33.61,109,30,109,30c5.85-1.58,2.83-2.14,2.83-2.14C116.7,25.15,111.22,26.64,111.22,26.64Zm-91.4-1.86a1.6,1.6,0,1,1,1.6-1.6A1.6,1.6,0,0,1,19.82,24.78ZM64.33,76l-1.77,3.11a8.26,8.26,0,0,0-2,3,50.1,50.1,0,0,0-6.48,2.64,18.1,18.1,0,0,1-9,2A5.76,5.76,0,0,0,45.55,84L56,77a3.23,3.23,0,0,0,1-4.64l-2.89-3.07c4.13-.46,9.2-3.39,9.2-3.39a10.57,10.57,0,0,0,2.27,3.25Z"/></svg>