<svg id="Layer_1" data-name="Layer 1" xmlns="http://www.w3.org/2000/svg" viewBox="0 0 114 114"><defs><style>.cls-1{fill:#fff;}</style></defs><path class="cls-1" d="M102.22,37.32c0-.51.07-1,.07-1.52A17.24,17.24,0,0,0,85.07,18.59a17,17,0,0,0-9,2.58,20.52,20.52,0,0,0-40.39.66,16.62,16.62,0,0,0-5.57-1A17.23,17.23,0,0,0,12.86,38.07c0,.21,0,.41,0,.62C8.07,40,1.17,42.78,1.19,52.61c0,7.31,6.08,13.58,14.35,14l86.44-.4a16.19,16.19,0,0,0,10.81-15.85A14.47,14.47,0,0,0,102.22,37.32Z"/><path class="cls-1" d="M37,82.16h0c-6.64-8.9-6.21-24.23-6.52-19.32-.83,12.82-5.88,19.32-5.88,19.32h0a5.64,5.64,0,0,0-.67,2.63c0,3.39,3.07,6.14,6.86,6.14s6.87-2.75,6.87-6.14A5.64,5.64,0,0,0,37,82.16Z"/><path class="cls-1" d="M58.1,70.08h0c-5.8-7.77-5.41-21.16-5.69-16.87-.73,11.19-5.14,16.87-5.14,16.87h0a4.87,4.87,0,0,0-.58,2.3c0,3,2.69,5.36,6,5.36s6-2.4,6-5.36A4.87,4.87,0,0,0,58.1,70.08Z"/><path class="cls-1" d="M52.09,98.94h0c-4.51-6-4.21-16.44-4.43-13.11-.56,8.69-4,13.11-4,13.11h0a3.91,3.91,0,0,0-.45,1.78,4.69,4.69,0,0,0,9.32,0A3.8,3.8,0,0,0,52.09,98.94Z"/><path class="cls-1" d="M40.77,55.28h0c-3.34-4.48-3.12-12.19-3.28-9.73-.42,6.45-3,9.73-3,9.73h0a2.81,2.81,0,0,0-.33,1.32,3.47,3.47,0,0,0,6.9,0A2.7,2.7,0,0,0,40.77,55.28Z"/><path class="cls-1" d="M76.37,61.89a4.52,4.52,0,1,1-4.52-4.52A4.52,4.52,0,0,1,76.37,61.89Z"/><path class="cls-1" d="M95.91,75.66a4.52,4.52,0,1,1-4.53-4.52A4.52,4.52,0,0,1,95.91,75.66Z"/><path class="cls-1" d="M79,104.89a4.52,4.52,0,1,1-4.52-4.52A4.52,4.52,0,0,1,79,104.89Z"/><path class="cls-1" d="M93.38,60.15a3.26,3.26,0,1,1-3.26-3.26A3.26,3.26,0,0,1,93.38,60.15Z"/><path class="cls-1" d="M79.52,81.91a4.12,4.12,0,1,1-4.11-4.12A4.11,4.11,0,0,1,79.52,81.91Z"/><path class="cls-1" d="M95.51,95a4.12,4.12,0,1,1-4.13-4.12A4.13,4.13,0,0,1,95.51,95Z"/></svg>